<?xml version="1.0" standalone="no"?>
<!DOCTYPE svg PUBLIC "-//W3C//DTD SVG 20010904//EN"
 "http://www.w3.org/TR/2001/REC-SVG-20010904/DTD/svg10.dtd">
<svg version="1.0" xmlns="http://www.w3.org/2000/svg"
 width="500.000000pt" height="500.000000pt" viewBox="0 0 500.000000 500.000000"
 preserveAspectRatio="xMidYMid meet">

<g transform="translate(0.000000,500.000000) scale(0.100000,-0.100000)"
fill="#000000" stroke="none">
<path d="M2300 4489 c-437 -44 -852 -235 -1174 -540 -680 -642 -821 -1678
-338 -2479 333 -552 916 -912 1560 -962 748 -59 1474 316 1864 962 135 224
233 502 269 760 17 121 17 418 1 535 -48 337 -183 667 -388 942 -81 109 -281
306 -394 390 -415 306 -902 442 -1400 392z m-888 -1634 c43 -214 81 -397 85
-405 3 -8 42 167 87 390 l82 405 229 0 228 0 63 -295 63 -295 1 -422 0 -423
-90 0 c-49 0 -90 3 -90 6 0 4 -41 197 -90 430 -50 232 -90 426 -90 430 0 4 -2
5 -5 2 -5 -5 -185 -842 -185 -860 0 -4 -113 -7 -257 -6 l-257 3 -167 710 c-91
391 -164 713 -162 718 2 4 111 6 240 5 l236 -3 79 -390z m1448 130 l0 -265
255 0 255 0 0 265 0 265 228 -2 227 -3 3 -717 2 -718 -230 0 -230 0 0 270 0
270 -255 0 -255 0 0 -270 0 -270 -230 0 -230 0 0 713 c0 393 3 717 7 720 3 4
107 7 230 7 l223 0 0 -265z m-1169 -1362 c0 -10 6 -36 13 -58 l13 -40 13 58
c10 43 17 57 31 57 14 0 23 -15 35 -57 l17 -58 15 58 c12 50 17 57 39 57 18 0
23 -4 19 -17 -47 -165 -46 -163 -71 -163 -20 0 -26 8 -38 48 l-14 47 -13 -48
c-11 -43 -15 -48 -39 -45 -23 3 -28 12 -47 78 -29 96 -29 100 1 100 17 0 25
-6 26 -17z m327 0 c-2 -11 -14 -19 -31 -21 -38 -5 -36 -32 4 -32 24 0 30 -4
27 -17 -2 -11 -14 -19 -31 -21 -38 -5 -36 -32 3 -32 23 0 30 -4 30 -20 0 -18
-7 -20 -55 -20 l-55 0 0 90 0 90 56 0 c47 0 55 -3 52 -17z m115 -35 l32 -53 3
53 c3 44 6 52 23 52 17 0 19 -7 19 -90 0 -87 -1 -90 -22 -90 -17 1 -32 15 -55
53 l-32 52 -1 -52 c0 -50 -2 -53 -25 -53 -25 0 -25 1 -25 90 0 89 0 90 25 90
20 0 32 -12 58 -52z m225 36 c33 -23 45 -60 32 -100 -15 -44 -45 -64 -97 -64
l-43 0 0 90 0 90 43 0 c23 0 53 -7 65 -16z m119 -10 l17 -26 22 27 c14 17 29
26 43 23 21 -3 20 -4 -9 -48 -21 -32 -30 -57 -30 -87 0 -39 -2 -43 -25 -43
-23 0 -25 4 -25 43 0 23 -6 51 -13 62 -52 76 -52 75 -23 75 17 0 31 -9 43 -26z
m243 -9 c0 -32 2 -35 30 -35 28 0 30 3 30 35 0 28 4 35 20 35 19 0 20 -7 20
-90 0 -83 -1 -90 -20 -90 -16 0 -20 7 -20 35 0 32 -2 35 -30 35 -28 0 -30 -3
-30 -35 0 -28 -4 -35 -20 -35 -19 0 -20 7 -20 90 0 83 1 90 20 90 16 0 20 -7
20 -35z m182 -32 c3 -57 6 -68 22 -71 27 -5 36 15 36 81 0 50 2 57 20 57 18 0
20 -7 20 -72 0 -86 -14 -108 -71 -108 -57 0 -69 19 -69 106 0 67 2 74 20 74
17 0 19 -8 22 -67z m253 43 c16 -25 8 -70 -14 -77 -6 -2 3 -21 20 -42 l30 -37
-27 0 c-19 0 -36 10 -55 33 l-28 32 -1 -32 c0 -26 -4 -33 -20 -33 -19 0 -20 7
-20 90 l0 90 50 0 c41 0 52 -4 65 -24z m163 8 c33 -23 45 -60 32 -100 -15 -44
-45 -64 -97 -64 l-43 0 0 90 0 90 43 0 c23 0 53 -7 65 -16z m-1213 -284 c4 -6
-4 -9 -17 -7 -19 2 -23 -3 -23 -23 0 -20 5 -25 23 -24 14 0 19 -3 13 -9 -18
-18 -46 -3 -49 27 -5 37 36 64 53 36z m133 1 c22 -14 11 -65 -15 -69 -29 -4
-48 30 -33 58 11 21 27 25 48 11z m124 -22 l11 -31 13 31 c18 42 24 39 23 -11
-1 -35 -2 -38 -8 -18 l-7 25 -9 -24 c-7 -23 -8 -23 -20 -7 -13 17 -13 17 -18
-1 -3 -10 -5 1 -6 25 -1 50 6 54 21 11z m178 16 c15 -18 5 -35 -20 -35 -10 0
-21 -8 -23 -17 -3 -10 -5 1 -6 25 -1 35 2 42 18 42 10 0 24 -7 31 -15z m130
-21 c7 -19 9 -38 6 -41 -3 -4 -6 -1 -6 5 0 7 -9 12 -20 12 -11 0 -20 -5 -20
-12 0 -6 -2 -9 -5 -7 -6 7 17 79 26 79 4 0 13 -16 19 -36z m143 12 c3 21 4 16
5 -16 l1 -45 -24 29 -23 29 -5 -29 c-3 -21 -4 -16 -5 16 l-1 45 24 -29 23 -29
5 29z m131 9 c13 16 13 12 -1 -21 l-18 -41 -12 36 c-16 46 -16 49 1 25 15 -19
15 -19 30 1z"/>
<path d="M2290 1550 c0 -54 14 -65 44 -34 28 28 12 84 -24 84 -17 0 -20 -7
-20 -50z"/>
<path d="M3080 1585 c0 -20 4 -26 18 -23 9 2 17 12 17 23 0 11 -8 21 -17 23
-14 3 -18 -3 -18 -23z"/>
<path d="M3250 1550 c0 -54 14 -65 44 -34 28 28 12 84 -24 84 -17 0 -20 -7
-20 -50z"/>
<path d="M2207 1334 c-4 -4 -7 -18 -7 -31 0 -17 6 -23 21 -23 16 0 20 5 17 27
-3 26 -18 39 -31 27z"/>
<path d="M2507 1333 c-12 -11 -8 -23 8 -23 8 0 15 7 15 15 0 16 -12 20 -23 8z"/>
<path d="M2640 1310 c0 -5 5 -10 10 -10 6 0 10 5 10 10 0 6 -4 10 -10 10 -5 0
-10 -4 -10 -10z"/>
</g>
</svg>
